# xmcd CD database file
#
# Track frame offsets:
#	150
#	15420
#	28562
#	41887
#	57197
#	71030
#	86200
#	99740
#	112785
#	127172
#	140570
#	155205
#
# Disc length: 2263 seconds
#
# Revision: 0
# Processed by: cddbd v1.4PL0 Copyright (c) Steve Scherf et al.
# Submitted via: CDex 1.50
#
DISCID=aa08d50c
DTITLE=Billie Holiday - Lover Man
DYEAR=1900
DGENRE=Jazz
TTITLE0=Lover Man
TTITLE1=That Ole Devil Called Love
TTITLE2=My Man (Man Homme)
TTITLE3=You're My Thrill
TTITLE4=Crazy He Calls Me
TTITLE5=Weep No More
TTITLE6=There Is No Grater Love
TTITLE7=This is Heaven To Me
TTITLE8=Solitude
TTITLE9=Porgy
TTITLE10=Girls Were Made To Take Care Of Boys
TTITLE11=Please Tell Me Now
EXTD=
EXTT0=
EXTT1=
EXTT2=
EXTT3=
EXTT4=
EXTT5=
EXTT6=
EXTT7=
EXTT8=
EXTT9=
EXTT10=
EXTT11=
PLAYORDER=
